<svg width="122" height="54" viewBox="0 0 122 54" fill="none" xmlns="http://www.w3.org/2000/svg">
<path d="M0 36.0002H17.8468V54H0V36.0002Z" fill="white"/>
<path d="M35.6935 36.0002H53.5402V54H35.6935V36.0002Z" fill="white"/>
<path d="M53.5402 36.0002H71.3872V54H53.5402V36.0002Z" fill="white"/>
<path d="M71.3872 36.0002H89.2342V54H71.3872V36.0002Z" fill="white"/>
<path d="M89.2342 36.0002H122V54H89.2342V36.0002Z" fill="white"/>
<path d="M17.847 18.0011H35.6938L35.6935 36.0002H17.8468L17.847 18.0011Z" fill="white"/>
<path d="M0 18.0011H17.847L17.8468 36.0002H0V18.0011Z" fill="white"/>
<path d="M17.847 0H35.6938V17.9998H17.847V0Z" fill="white"/>
<path d="M46.0564 16.3804H45.865C45.6098 16.9166 45.2536 17.3133 44.7964 17.5707C44.3499 17.828 43.8768 17.9567 43.3771 17.9567C42.8561 17.9567 42.3723 17.8709 41.9258 17.6994C41.4792 17.5171 41.0858 17.2543 40.7456 16.9112C40.416 16.5573 40.1555 16.1284 39.9641 15.6244C39.7728 15.1204 39.6771 14.536 39.6771 13.8711V13.6138C39.6771 12.9596 39.7728 12.3806 39.9641 11.8766C40.1555 11.3726 40.416 10.949 40.7456 10.6059C41.0858 10.252 41.4792 9.98392 41.9258 9.80162C42.3723 9.61933 42.8454 9.52818 43.3452 9.52818C43.8874 9.52818 44.3765 9.6515 44.8124 9.89813C45.2589 10.134 45.6098 10.504 45.865 11.008H46.0564V9.75337H47.3003V16.0909C47.3003 16.4126 47.4438 16.5734 47.7309 16.5734H48.1296V17.7315H47.2844C46.9229 17.7315 46.6252 17.6136 46.3913 17.3777C46.168 17.1417 46.0564 16.8415 46.0564 16.4769V16.3804ZM43.5046 16.7664C43.8768 16.7664 44.217 16.6967 44.5253 16.5573C44.8443 16.4179 45.1154 16.2195 45.3387 15.9622C45.562 15.7048 45.7374 15.3992 45.865 15.0453C45.9926 14.6807 46.0564 14.2786 46.0564 13.839V13.6459C46.0564 13.217 45.9926 12.8256 45.865 12.4717C45.7374 12.1071 45.5566 11.7962 45.3227 11.5388C45.0995 11.2814 44.8283 11.0831 44.5094 10.9437C44.201 10.7935 43.8661 10.7185 43.5046 10.7185C43.1325 10.7185 42.7923 10.7882 42.484 10.9276C42.1756 11.067 41.9045 11.2654 41.6706 11.5227C41.4473 11.7694 41.2719 12.075 41.1443 12.4396C41.0167 12.7934 40.9529 13.1848 40.9529 13.6138V13.8711C40.9529 14.7826 41.1868 15.4957 41.6546 16.0104C42.1331 16.5144 42.7498 16.7664 43.5046 16.7664Z" fill="white"/>
<path d="M55.2474 16.5091H55.056C54.9284 16.7557 54.7636 16.9702 54.5616 17.1525C54.3702 17.3348 54.1576 17.4849 53.9237 17.6028C53.7004 17.7208 53.4612 17.8066 53.206 17.8602C52.9508 17.9245 52.7063 17.9567 52.4724 17.9567C51.9408 17.9567 51.4464 17.8656 50.9892 17.6833C50.532 17.501 50.128 17.2383 49.7771 16.8951C49.4369 16.552 49.1658 16.1284 48.9638 15.6244C48.7724 15.1097 48.6767 14.5253 48.6767 13.8711V13.6138C48.6767 12.9704 48.7777 12.3967 48.9797 11.8927C49.1817 11.378 49.4529 10.949 49.7931 10.6059C50.1333 10.252 50.532 9.98392 50.9892 9.80162C51.4464 9.61933 51.9301 9.52818 52.4405 9.52818C52.9827 9.52818 53.4878 9.6515 53.9556 9.89813C54.434 10.134 54.8008 10.504 55.056 11.008H55.2474V6.47203H56.4913V17.7315H55.2474V16.5091ZM52.6 16.7664C52.9721 16.7664 53.3176 16.6967 53.6366 16.5573C53.9556 16.4179 54.232 16.2195 54.4659 15.9622C54.7104 15.7048 54.9018 15.3992 55.04 15.0453C55.1783 14.6807 55.2474 14.2786 55.2474 13.839V13.6459C55.2474 13.217 55.1783 12.8256 55.04 12.4717C54.9018 12.1071 54.7104 11.7962 54.4659 11.5388C54.232 11.2814 53.9503 11.0831 53.6207 10.9437C53.3017 10.7935 52.9615 10.7185 52.6 10.7185C52.2278 10.7185 51.877 10.7882 51.5474 10.9276C51.2284 11.067 50.9467 11.2654 50.7021 11.5227C50.4682 11.7801 50.2822 12.0857 50.144 12.4396C50.0164 12.7934 49.9526 13.1848 49.9526 13.6138V13.8711C49.9526 14.3215 50.0164 14.7236 50.144 15.0775C50.2822 15.4314 50.4682 15.737 50.7021 15.9943C50.9467 16.241 51.2284 16.434 51.5474 16.5734C51.8664 16.7021 52.2172 16.7664 52.6 16.7664Z" fill="white"/>
<path d="M57.485 9.75337H60.3557V10.815H60.547C60.749 10.3753 61.0361 10.0536 61.4082 9.84988C61.7804 9.63541 62.2056 9.52818 62.6841 9.52818C63.4815 9.52818 64.1248 9.7909 64.6138 10.3163C65.1029 10.8418 65.3634 11.6085 65.3953 12.6165L64.0875 12.8095C64.0875 12.0696 63.9121 11.5388 63.5613 11.2171C63.2104 10.8847 62.7798 10.7185 62.2694 10.7185C61.9398 10.7185 61.6528 10.7828 61.4082 10.9115C61.1743 11.0402 60.9776 11.2171 60.8182 11.4423C60.6587 11.6675 60.5417 11.9302 60.4673 12.2305C60.3929 12.5307 60.3557 12.8524 60.3557 13.1956V16.5734H62.3651V17.7315H57.2936V16.5734H59.1117V10.9115H57.485V9.75337Z" fill="white"/>
<path d="M74.2036 13.839C74.2036 14.5038 74.0919 15.0936 73.8686 15.6083C73.656 16.1123 73.3689 16.5412 73.0074 16.8951C72.646 17.2383 72.2207 17.501 71.7316 17.6833C71.2531 17.8656 70.7534 17.9567 70.2325 17.9567C69.7008 17.9567 69.1958 17.8656 68.7174 17.6833C68.2389 17.501 67.819 17.2383 67.4575 16.8951C67.096 16.5412 66.8036 16.1123 66.5803 15.6083C66.3677 15.0936 66.2613 14.5038 66.2613 13.839V13.6459C66.2613 12.9918 66.3677 12.4128 66.5803 11.9088C66.8036 11.394 67.096 10.9597 67.4575 10.6059C67.8296 10.252 68.2549 9.98392 68.7333 9.80162C69.2118 9.61933 69.7115 9.52818 70.2325 9.52818C70.7534 9.52818 71.2531 9.61933 71.7316 9.80162C72.21 9.98392 72.63 10.252 72.9915 10.6059C73.3636 10.9597 73.656 11.394 73.8686 11.9088C74.0919 12.4128 74.2036 12.9918 74.2036 13.6459V13.839ZM70.2325 16.7664C70.6152 16.7664 70.9661 16.7021 71.285 16.5734C71.6146 16.434 71.9017 16.2356 72.1462 15.9783C72.3908 15.7209 72.5822 15.4153 72.7204 15.0614C72.8586 14.6968 72.9277 14.2893 72.9277 13.839V13.6459C72.9277 13.217 72.8586 12.8256 72.7204 12.4717C72.5822 12.1071 72.3908 11.7962 72.1462 11.5388C71.9017 11.2814 71.6146 11.0831 71.285 10.9437C70.9554 10.7935 70.6046 10.7185 70.2325 10.7185C69.8603 10.7185 69.5095 10.7935 69.1799 10.9437C68.8503 11.0831 68.5632 11.2814 68.3187 11.5388C68.0741 11.7962 67.8828 12.1071 67.7445 12.4717C67.6063 12.8256 67.5372 13.217 67.5372 13.6459V13.839C67.5372 14.2893 67.6063 14.6968 67.7445 15.0614C67.8828 15.4153 68.0741 15.7209 68.3187 15.9783C68.5632 16.2356 68.845 16.434 69.1639 16.5734C69.4935 16.7021 69.8497 16.7664 70.2325 16.7664Z" fill="white"/>
<path d="M78.0041 7.37279C78.0041 7.06181 78.1104 6.79909 78.3231 6.58462C78.5463 6.35943 78.8121 6.24684 79.1205 6.24684C79.4288 6.24684 79.6893 6.35943 79.9019 6.58462C80.1252 6.79909 80.2368 7.06181 80.2368 7.37279C80.2368 7.68377 80.1252 7.95185 79.9019 8.17704C79.6893 8.39151 79.4288 8.49874 79.1205 8.49874C78.8121 8.49874 78.5463 8.39151 78.3231 8.17704C78.1104 7.95185 78.0041 7.68377 78.0041 7.37279ZM75.7394 16.5734H78.5144V10.9115H76.0265V9.75337H79.7584V16.5734H82.342V17.7315H75.7394V16.5734Z" fill="white"/>
<path d="M84.0852 9.75337H86.5731V6.47203H87.8171V9.75337H90.8791V10.9115H87.8171V16.0909C87.8171 16.4126 87.9606 16.5734 88.2477 16.5734H90.4964V17.7315H87.8011C87.4396 17.7315 87.142 17.6136 86.908 17.3777C86.6848 17.1417 86.5731 16.8415 86.5731 16.4769V10.9115H84.0852V9.75337Z" fill="white"/>
<path d="M41.224 27.6467C41.2559 28.4403 41.5005 29.0783 41.9577 29.5608C42.4148 30.0434 43.0528 30.2847 43.8714 30.2847C44.2436 30.2847 44.5679 30.2418 44.8443 30.156C45.1207 30.0702 45.3546 29.9522 45.546 29.8021C45.748 29.652 45.9075 29.4804 46.0245 29.2874C46.152 29.0837 46.253 28.8692 46.3275 28.644L47.5076 28.9657C47.2844 29.7056 46.8697 30.3115 46.2637 30.7833C45.6683 31.2444 44.8602 31.475 43.8396 31.475C43.2761 31.475 42.7551 31.3784 42.2766 31.1854C41.8088 30.9817 41.4048 30.6975 41.0646 30.3329C40.7243 29.9683 40.4585 29.534 40.2672 29.03C40.0758 28.526 39.9801 27.9684 39.9801 27.3572V26.9712C39.9801 26.4135 40.0758 25.8935 40.2672 25.4109C40.4692 24.9284 40.7456 24.5155 41.0965 24.1724C41.4473 23.8185 41.8567 23.5451 42.3245 23.352C42.8029 23.1483 43.3186 23.0464 43.8714 23.0464C44.52 23.0464 45.0782 23.1697 45.546 23.4164C46.0245 23.6523 46.4125 23.9472 46.7102 24.301C47.0186 24.6549 47.2418 25.041 47.3801 25.4592C47.5289 25.8774 47.6033 26.2634 47.6033 26.6173V27.6467H41.224ZM43.8714 24.2367C43.5206 24.2367 43.191 24.2957 42.8827 24.4136C42.585 24.5209 42.3192 24.6764 42.0852 24.8801C41.862 25.0839 41.6759 25.3251 41.5271 25.6039C41.3888 25.872 41.2985 26.1669 41.2559 26.4886H46.3594C46.3381 26.1455 46.253 25.8345 46.1042 25.5557C45.966 25.2769 45.7799 25.041 45.546 24.8479C45.3227 24.6549 45.0622 24.5048 44.7645 24.3976C44.4775 24.2903 44.1798 24.2367 43.8714 24.2367Z" fill="white"/>
<path d="M55.2474 30.0273H55.056C54.9284 30.2739 54.7636 30.4884 54.5616 30.6707C54.3702 30.853 54.1576 31.0031 53.9237 31.1211C53.7004 31.239 53.4612 31.3248 53.206 31.3784C52.9508 31.4428 52.7063 31.475 52.4724 31.475C51.9408 31.475 51.4464 31.3838 50.9892 31.2015C50.532 31.0192 50.128 30.7565 49.7771 30.4133C49.4369 30.0702 49.1658 29.6466 48.9638 29.1426C48.7724 28.6279 48.6767 28.0435 48.6767 27.3894V27.132C48.6767 26.4886 48.7777 25.9149 48.9797 25.4109C49.1817 24.8962 49.4529 24.4673 49.7931 24.1241C50.1333 23.7702 50.532 23.5022 50.9892 23.3199C51.4464 23.1376 51.9301 23.0464 52.4405 23.0464C52.9827 23.0464 53.4878 23.1697 53.9556 23.4164C54.434 23.6523 54.8008 24.0222 55.056 24.5262H55.2474V19.9903H56.4913V31.2498H55.2474V30.0273ZM52.6 30.2847C52.9721 30.2847 53.3176 30.215 53.6366 30.0756C53.9556 29.9362 54.232 29.7378 54.4659 29.4804C54.7104 29.2231 54.9018 28.9174 55.04 28.5636C55.1783 28.199 55.2474 27.7969 55.2474 27.3572V27.1642C55.2474 26.7352 55.1783 26.3438 55.04 25.99C54.9018 25.6254 54.7104 25.3144 54.4659 25.057C54.232 24.7997 53.9503 24.6013 53.6207 24.4619C53.3017 24.3118 52.9615 24.2367 52.6 24.2367C52.2278 24.2367 51.877 24.3064 51.5474 24.4458C51.2284 24.5852 50.9467 24.7836 50.7021 25.041C50.4682 25.2983 50.2822 25.6039 50.144 25.9578C50.0164 26.3117 49.9526 26.7031 49.9526 27.132V27.3894C49.9526 27.8398 50.0164 28.2419 50.144 28.5957C50.2822 28.9496 50.4682 29.2552 50.7021 29.5126C50.9467 29.7592 51.2284 29.9522 51.5474 30.0917C51.8664 30.2203 52.2172 30.2847 52.6 30.2847Z" fill="white"/>
<path d="M63.5772 23.2716H64.8212V31.2498H63.5772V29.8021H63.3858C63.1306 30.3168 62.7957 30.7243 62.3811 31.0246C61.9664 31.3248 61.4401 31.475 60.8022 31.475C60.3663 31.475 59.9623 31.3999 59.5901 31.2498C59.2287 31.1104 58.915 30.8959 58.6492 30.6064C58.394 30.3168 58.192 29.9576 58.0432 29.5287C57.9049 29.0997 57.8358 28.6011 57.8358 28.0328V23.2716H59.0798V27.8719C59.0798 28.7083 59.2499 29.3196 59.5901 29.7056C59.9304 30.0917 60.4513 30.2847 61.1531 30.2847C61.9079 30.2847 62.498 30.0273 62.9233 29.5126C63.3592 28.9871 63.5772 28.2901 63.5772 27.4215V23.2716Z" fill="white"/>
<path d="M74.1398 28.4188C74.0547 28.8585 73.9059 29.266 73.6932 29.6413C73.4912 30.0166 73.2307 30.3436 72.9118 30.6225C72.5928 30.8905 72.2207 31.0996 71.7954 31.2498C71.3701 31.3999 70.897 31.475 70.376 31.475C69.8231 31.475 69.2968 31.3838 68.7971 31.2015C68.308 31.0192 67.8774 30.7565 67.5053 30.4133C67.1332 30.0595 66.8355 29.6305 66.6122 29.1266C66.3996 28.6226 66.2933 28.0435 66.2933 27.3894V27.1964C66.2933 26.5529 66.3996 25.9739 66.6122 25.4592C66.8355 24.9445 67.1332 24.5102 67.5053 24.1563C67.8774 23.8024 68.308 23.529 68.7971 23.3359C69.2968 23.1429 69.8231 23.0464 70.376 23.0464C70.8757 23.0464 71.3382 23.1215 71.7635 23.2716C72.1888 23.4217 72.5609 23.6362 72.8799 23.915C73.2094 24.1831 73.4753 24.5048 73.6773 24.8801C73.8899 25.2554 74.0334 25.6629 74.1079 26.1026L72.8639 26.3921C72.832 26.1133 72.7523 25.8452 72.6247 25.5879C72.5077 25.3198 72.3429 25.0892 72.1303 24.8962C71.9283 24.6925 71.6784 24.5316 71.3807 24.4136C71.083 24.2957 70.7375 24.2367 70.3441 24.2367C69.9613 24.2367 69.5998 24.3118 69.2596 24.4619C68.93 24.6013 68.6376 24.805 68.3825 25.0731C68.1273 25.3305 67.9253 25.6415 67.7764 26.0061C67.6382 26.3707 67.5691 26.7674 67.5691 27.1964V27.3894C67.5691 27.8398 67.6382 28.2472 67.7764 28.6118C67.9253 28.9657 68.1273 29.266 68.3825 29.5126C68.6376 29.7592 68.9353 29.9522 69.2756 30.0917C69.6158 30.2203 69.9826 30.2847 70.376 30.2847C70.7694 30.2847 71.1096 30.2257 71.3967 30.1077C71.6944 29.9791 71.9442 29.8182 72.1462 29.6252C72.3589 29.4214 72.5237 29.1909 72.6406 28.9335C72.7682 28.6762 72.8533 28.4081 72.8958 28.1293L74.1398 28.4188Z" fill="white"/>
<path d="M81.2894 29.8986H81.098C80.8429 30.4348 80.4867 30.8316 80.0295 31.0889C79.583 31.3463 79.1098 31.475 78.6101 31.475C78.0891 31.475 77.6054 31.3892 77.1588 31.2176C76.7123 31.0353 76.3189 30.7726 75.9787 30.4294C75.6491 30.0756 75.3886 29.6466 75.1972 29.1426C75.0058 28.6386 74.9101 28.0542 74.9101 27.3894V27.132C74.9101 26.4779 75.0058 25.8988 75.1972 25.3948C75.3886 24.8908 75.6491 24.4673 75.9787 24.1241C76.3189 23.7702 76.7123 23.5022 77.1588 23.3199C77.6054 23.1376 78.0785 23.0464 78.5782 23.0464C79.1205 23.0464 79.6095 23.1697 80.0455 23.4164C80.492 23.6523 80.8429 24.0222 81.098 24.5262H81.2894V23.2716H82.5334V29.6091C82.5334 29.9308 82.6769 30.0917 82.964 30.0917H83.3627V31.2498H82.5174C82.1559 31.2498 81.8582 31.1318 81.6243 30.8959C81.4011 30.66 81.2894 30.3597 81.2894 29.9951V29.8986ZM78.7377 30.2847C79.1098 30.2847 79.4501 30.215 79.7584 30.0756C80.0774 29.9362 80.3485 29.7378 80.5717 29.4804C80.795 29.2231 80.9705 28.9174 81.098 28.5636C81.2256 28.199 81.2894 27.7969 81.2894 27.3572V27.1642C81.2894 26.7352 81.2256 26.3438 81.098 25.99C80.9705 25.6254 80.7897 25.3144 80.5558 25.057C80.3325 24.7997 80.0614 24.6013 79.7424 24.4619C79.4341 24.3118 79.0992 24.2367 78.7377 24.2367C78.3656 24.2367 78.0254 24.3064 77.717 24.4458C77.4087 24.5852 77.1376 24.7836 76.9037 25.041C76.6804 25.2876 76.505 25.5932 76.3774 25.9578C76.2498 26.3117 76.186 26.7031 76.186 27.132V27.3894C76.186 28.3009 76.4199 29.014 76.8877 29.5287C77.3662 30.0327 77.9828 30.2847 78.7377 30.2847Z" fill="white"/>
<path d="M84.0852 23.2716H86.5731V19.9903H87.8171V23.2716H90.8791V24.4297H87.8171V29.6091C87.8171 29.9308 87.9606 30.0917 88.2477 30.0917H90.4964V31.2498H87.8011C87.4396 31.2498 87.142 31.1318 86.908 30.8959C86.6848 30.66 86.5731 30.3597 86.5731 29.9951V24.4297H84.0852V23.2716Z" fill="white"/>
<path d="M95.6206 20.891C95.6206 20.5801 95.7269 20.3173 95.9396 20.1029C96.1629 19.8777 96.4287 19.7651 96.737 19.7651C97.0453 19.7651 97.3058 19.8777 97.5185 20.1029C97.7417 20.3173 97.8534 20.5801 97.8534 20.891C97.8534 21.202 97.7417 21.4701 97.5185 21.6953C97.3058 21.9097 97.0453 22.017 96.737 22.017C96.4287 22.017 96.1629 21.9097 95.9396 21.6953C95.7269 21.4701 95.6206 21.202 95.6206 20.891ZM93.356 30.0917H96.131V24.4297H93.643V23.2716H97.3749V30.0917H99.9585V31.2498H93.356V30.0917Z" fill="white"/>
<path d="M109.437 27.3572C109.437 28.022 109.325 28.6118 109.102 29.1266C108.889 29.6305 108.602 30.0595 108.24 30.4133C107.879 30.7565 107.454 31.0192 106.965 31.2015C106.486 31.3838 105.987 31.475 105.466 31.475C104.934 31.475 104.429 31.3838 103.95 31.2015C103.472 31.0192 103.052 30.7565 102.691 30.4133C102.329 30.0595 102.037 29.6305 101.813 29.1266C101.601 28.6118 101.494 28.022 101.494 27.3572V27.1642C101.494 26.5101 101.601 25.931 101.813 25.427C102.037 24.9123 102.329 24.478 102.691 24.1241C103.063 23.7702 103.488 23.5022 103.966 23.3199C104.445 23.1376 104.945 23.0464 105.466 23.0464C105.987 23.0464 106.486 23.1376 106.965 23.3199C107.443 23.5022 107.863 23.7702 108.225 24.1241C108.597 24.478 108.889 24.9123 109.102 25.427C109.325 25.931 109.437 26.5101 109.437 27.1642V27.3572ZM105.466 30.2847C105.848 30.2847 106.199 30.2203 106.518 30.0917C106.848 29.9522 107.135 29.7539 107.379 29.4965C107.624 29.2391 107.815 28.9335 107.953 28.5797C108.092 28.2151 108.161 27.8076 108.161 27.3572V27.1642C108.161 26.7352 108.092 26.3438 107.953 25.99C107.815 25.6254 107.624 25.3144 107.379 25.057C107.135 24.7997 106.848 24.6013 106.518 24.4619C106.189 24.3118 105.838 24.2367 105.466 24.2367C105.093 24.2367 104.743 24.3118 104.413 24.4619C104.083 24.6013 103.796 24.7997 103.552 25.057C103.307 25.3144 103.116 25.6254 102.978 25.99C102.839 26.3438 102.77 26.7352 102.77 27.1642V27.3572C102.77 27.8076 102.839 28.2151 102.978 28.5797C103.116 28.9335 103.307 29.2391 103.552 29.4965C103.796 29.7539 104.078 29.9522 104.397 30.0917C104.727 30.2203 105.083 30.2847 105.466 30.2847Z" fill="white"/>
<path d="M112.025 31.2498H110.781V23.2716H112.025V24.6227H112.216C112.706 23.5719 113.556 23.0464 114.768 23.0464C115.683 23.0464 116.411 23.3359 116.953 23.915C117.495 24.4833 117.766 25.3412 117.766 26.4886V31.2498H116.522V26.746C116.522 25.9095 116.336 25.2822 115.964 24.864C115.592 24.4458 115.087 24.2367 114.449 24.2367C113.694 24.2367 113.099 24.4994 112.663 25.0249C112.238 25.5396 112.025 26.2313 112.025 27.0998V31.2498Z" fill="white"/>
</svg>
