<svg width="32" height="32" viewBox="0 0 32 32" fill="none" xmlns="http://www.w3.org/2000/svg">
<g id="Frame" clip-path="url(#clip0_195_23816)">
<path id="Vector" d="M21.3333 5.33344H10.6667C7.72116 5.33344 5.33334 7.72125 5.33334 10.6668V21.3334C5.33334 24.279 7.72116 26.6668 10.6667 26.6668H21.3333C24.2789 26.6668 26.6667 24.279 26.6667 21.3334V10.6668C26.6667 7.72125 24.2789 5.33344 21.3333 5.33344Z" stroke="white" stroke-width="2" stroke-linecap="round" stroke-linejoin="round"/>
<path id="Vector_2" d="M16 20.0001C18.2091 20.0001 20 18.2093 20 16.0001C20 13.791 18.2091 12.0001 16 12.0001C13.7909 12.0001 12 13.791 12 16.0001C12 18.2093 13.7909 20.0001 16 20.0001Z" stroke="white" stroke-width="2" stroke-linecap="round" stroke-linejoin="round"/>
<path id="Vector_3" d="M22 10.0001V10.0011" stroke="white" stroke-width="2" stroke-linecap="round" stroke-linejoin="round"/>
</g>
<defs>
<clipPath id="clip0_195_23816">
<rect width="32" height="32" fill="white"/>
</clipPath>
</defs>
</svg>
