<svg width="32" height="32" viewBox="0 0 32 32" fill="none" xmlns="http://www.w3.org/2000/svg">
<g id="Frame" clip-path="url(#clip0_195_23824)">
<path id="Vector" d="M24 5.33344H8.00001C6.52725 5.33344 5.33334 6.52734 5.33334 8.0001V24.0001C5.33334 25.4729 6.52725 26.6668 8.00001 26.6668H24C25.4728 26.6668 26.6667 25.4729 26.6667 24.0001V8.0001C26.6667 6.52734 25.4728 5.33344 24 5.33344Z" stroke="white" stroke-width="2" stroke-linecap="round" stroke-linejoin="round"/>
<path id="Vector_2" d="M10.6667 14.6668V21.3335" stroke="white" stroke-width="2" stroke-linecap="round" stroke-linejoin="round"/>
<path id="Vector_3" d="M10.6667 10.6668V10.6801" stroke="white" stroke-width="2" stroke-linecap="round" stroke-linejoin="round"/>
<path id="Vector_4" d="M16 21.3335V14.6668" stroke="white" stroke-width="2" stroke-linecap="round" stroke-linejoin="round"/>
<path id="Vector_5" d="M21.3333 21.3335V17.3335C21.3333 16.6262 21.0524 15.948 20.5523 15.4479C20.0522 14.9478 19.3739 14.6668 18.6667 14.6668C17.9594 14.6668 17.2811 14.9478 16.781 15.4479C16.281 15.948 16 16.6262 16 17.3335" stroke="white" stroke-width="2" stroke-linecap="round" stroke-linejoin="round"/>
</g>
<defs>
<clipPath id="clip0_195_23824">
<rect width="32" height="32" fill="white"/>
</clipPath>
</defs>
</svg>
