<svg width="64" height="65" viewBox="0 0 64 65" fill="none" xmlns="http://www.w3.org/2000/svg">
<g id="Frame" clip-path="url(#clip0_588_4909)">
<path id="Vector" d="M37.332 8.5V19.1667C37.332 19.8739 37.613 20.5522 38.1131 21.0523C38.6132 21.5524 39.2915 21.8333 39.9987 21.8333H50.6654" stroke="white" stroke-width="4" stroke-linecap="round" stroke-linejoin="round"/>
<path id="Vector_2" d="M13.332 21.8333V13.8333C13.332 12.4188 13.8939 11.0623 14.8941 10.0621C15.8943 9.0619 17.2509 8.5 18.6654 8.5H37.332L50.6654 21.8333V51.1667C50.6654 52.5812 50.1035 53.9377 49.1033 54.9379C48.1031 55.9381 46.7465 56.5 45.332 56.5H31.9987" stroke="white" stroke-width="4" stroke-linecap="round" stroke-linejoin="round"/>
<path id="Vector_3" d="M8.00098 37.8328C8.00098 39.9545 8.84383 41.9893 10.3441 43.4896C11.8444 44.9899 13.8792 45.8328 16.001 45.8328C18.1227 45.8328 20.1575 44.9899 21.6578 43.4896C23.1581 41.9893 24.001 39.9545 24.001 37.8328C24.001 35.711 23.1581 33.6762 21.6578 32.1759C20.1575 30.6756 18.1227 29.8328 16.001 29.8328C13.8792 29.8328 11.8444 30.6756 10.3441 32.1759C8.84383 33.6762 8.00098 35.711 8.00098 37.8328Z" stroke="white" stroke-width="4" stroke-linecap="round" stroke-linejoin="round"/>
<path id="Vector_4" d="M12.001 45.8328L8.00098 59.1661L16.001 55.1661L24.001 59.1661L20.001 45.8328" stroke="white" stroke-width="4" stroke-linecap="round" stroke-linejoin="round"/>
</g>
<defs>
<clipPath id="clip0_588_4909">
<rect width="64" height="64" fill="white" transform="translate(0 0.5)"/>
</clipPath>
</defs>
</svg>
