<svg width="32" height="32" viewBox="0 0 32 32" fill="none" xmlns="http://www.w3.org/2000/svg">
<g id="Frame" clip-path="url(#clip0_195_23831)">
<path id="Vector" d="M29.3334 5.34681C28 6.00014 26.6934 6.26547 25.3334 6.66681C23.8387 4.98014 21.6227 4.88681 19.4934 5.68414C17.364 6.48147 15.9694 8.43081 16 10.6668V12.0001C11.6734 12.1108 7.82002 10.1401 5.33335 6.66681C5.33335 6.66681 -0.242647 16.5775 10.6667 21.3335C8.17069 22.9961 5.68135 24.1175 2.66669 24.0001C7.07735 26.4041 11.884 27.2308 16.0454 26.0228C20.8187 24.6361 24.7414 21.0588 26.2467 15.7001C26.6957 14.0704 26.9187 12.3866 26.9094 10.6961C26.9067 10.3641 28.9227 7.00014 29.3334 5.34547V5.34681Z" stroke="white" stroke-width="2" stroke-linecap="round" stroke-linejoin="round"/>
</g>
<defs>
<clipPath id="clip0_195_23831">
<rect width="32" height="32" fill="white"/>
</clipPath>
</defs>
</svg>
